<?xml version="1.0" encoding="UTF-8"?>
<svg id="Layer_1" data-name="Layer 1" xmlns="http://www.w3.org/2000/svg" version="1.1" viewBox="0 0 565.35 271.25">
  <defs>
    <style>
      .cls-1 {
        fill: #fff;
        stroke-width: 0px;
      }
    </style>
  </defs>
  <path class="cls-1" d="M362.77,72.66c-.7-.94-1.76-1.6-3.18-1.71-1.18-.09-2.93-.04-4.03.47-2.31,1.08-3.03,4.25-4,6.38-2.36,5.18-4.28,10.54-6.43,15.8-.66,1.61-1.24,3.26-2.21,4.72-.22.33-.56.57-.95.33-.2-.12-.34-.33-.47-.53-1.56-2.45-2.6-5.34-3.79-7.99-1.28-2.86-2.49-5.75-3.75-8.62-1.79-4.06-3.46-8.15-4.98-12.32-.31-.85-.63-1.7-.96-2.54-1.18-2.98-2.44-5.93-3.71-8.88-.82-1.9-1.34-4.55-3.15-5.8-1.94-1.34-5.7-1.31-7.24.49-.3.35-.56.73-.79,1.13-1.96,3.28-3.17,7.01-4.66,10.52-2.62,6.15-5.32,12.24-7.81,18.43-1.34,3.32-2.8,6.61-4.06,9.95-.74,1.96-1.44,3.97-2.59,5.73-1.25,1.91-2.82-2.76-3.15-3.58-.76-1.85-1.75-3.62-2.6-5.43-2.19-4.67-4.24-9.46-6.07-14.28-1.33-3.5-2.66-7.01-3.99-10.51-1.15-3.04-2.56-5.97-3.8-8.97-.78-1.9-2.09-4.58-4.61-4.19-1.05.16-2.09.46-3.08.84-.72.27-2.01.63-2.55,1.2-.55.58-.74,1.66-.65,2.43.5,2.71,1.77,5.83,2.63,8.46.83,2.49,2.03,4.87,2.95,7.33,1.39,3.75,2.94,7.44,4.45,11.14.78,1.91,1.57,3.82,2.35,5.74.38.93.77,1.87,1.15,2.8.19.47.38.93.58,1.4.15.37.58,1.01.58,1.4,1.33,3.23,2.57,6.48,3.88,9.72,1.87,4.61,4.25,8.97,6,13.63.34.9,1.06,2.12,1.85,2.73.87.68,1.94.57,2.97.68,1.18.13,2.17.04,3.32-.47.91-.4,1.44-1.04,1.94-1.91.97-1.69,1.78-3.46,2.42-5.3,2.95-8.53,6.56-16.87,9.99-25.22.82-2,1.69-4,2.45-6.02,1.2-3.17,2.66-6.23,3.88-9.4.26-.69,1.23-.67,1.48.01,1.48,3.92,3.05,7.8,4.66,11.66,1.62,3.89,3.28,7.76,4.88,11.66,3,7.29,5.62,14.77,8.34,22.17.26.71.54,1.46,1.11,1.97,1.38,1.26,3.6.74,5.28.83,4.97.28,5.6-4.97,7.26-8.47.41-.86.61-1.88.94-2.78.4-1.1.81-2.19,1.22-3.29.72-1.89,1.47-3.77,2.24-5.64,1.3-3.16,2.6-6.32,3.9-9.47,1.37-3.24,2.77-6.47,4.08-9.74,1.11-2.77,2.63-5.98.53-8.74Z"/>
  <path class="cls-1" d="M104.52,110.38c0,1.51.13,3.05.18,4.56.01.42.03.84.12,1.25.23,1.05.88,2.42,1.88,2.9,1.93.93,4.47.6,6.54.48,2.39-.13,4.05-1.19,4.11-3.75.63-4.83.18-10,.44-14.87.2-1.36.22-2.73.35-4.1.09-1-.03-2.54.69-3.34s2.54-.82,3.52-.9c2.19-.18,4.27.1,6.44.11,2.64.02,5.17-.25,7.46,1.33,1.02.7,1.84,1.64,2.66,2.57,1.89,2.17,3.77,4.35,5.68,6.49.99,1.11,1.98,2.21,2.99,3.29,1.51,1.62,3.32,3.02,5.01,4.45,1.86,1.57,3.72,3.21,5.72,4.59,1.01.7,2.03,1.38,3.07,2.04.34.22,3.06,1.56,3.06,1.83,5.38,3.03,11.13,5.39,17.04,7.15s12.35,3,18.67,3.61c6.38.62,12.81.66,19.2.12,6.29-.53,12.54-1.62,18.62-3.32s11.57-3.84,16.94-6.7c3.1-1.65,6.09-3.52,8.9-5.62,5.61-4.86-2.56-12.98-8.14-8.14-4.66,3.49-9.94,6.08-15.42,8-5.93,2.07-12.12,3.37-18.35,4.05-6.48.7-13.03.74-19.52.16-6.4-.58-12.76-1.77-18.91-3.67-5.78-1.78-11.4-4.2-16.52-7.43-4.56-2.87-8.03-6.5-11.34-10.7-.82-1.04-1.64-2.09-2.37-3.19-.16-.24-.32-.5-.33-.79-.02-.86,1.36-1.08,1.96-1.33.94-.41,1.87-.86,2.77-1.34,2.53-1.37,5.08-3.05,6.87-5.35,1.8-2.32,3.16-5.01,3.73-7.9.44-2.23.41-4.52.23-6.77s-.37-4.31-1.15-6.36c-1.33-3.51-3.43-6.86-6.57-8.99-2.92-1.98-6.39-3.01-9.85-3.55-4.3-.67-8.72-.44-13.08-.45-4.62,0-9.23,0-13.85.03-3.91.02-7.83.06-11.74.12-1.37.02-2.61-.26-3.99.09-1.08.27-2.51.77-3.07,1.8-1.15,2.12-.71,5.09-.61,7.43.23,5.14.02,10.23.03,15.37,0,4.22.05,8.43-.01,12.65-.03,2.11-.07,4.23-.09,6.34-.04,3.4.21,6.8.23,10.21,0,1.73-.18,3.44-.22,5.16,0,.13,0,.26,0,.39ZM117.97,72.09c.02-1.51.04-3.01.05-4.52.02-1.35-.16-2.88.14-4.2.28-1.21,1.05-1.28,2.12-1.42,4.29-.59,8.72.04,13.03.13,4.46.1,9.01-.38,13.45.08.62.06,1.24.15,1.86.25,2.31.39,4.43,1.34,5.73,3.38,1.98,3.13,1.68,6.63.75,10.04-.25.92-.56,1.84-1.06,2.65-1.1,1.78-3.29,2.71-5.31,2.91-3.69.36-7.39.08-11.08-.03-4.37-.13-8.75-.08-13.11-.25-1.52-.06-3.13.04-4.6-.42-.44-.14-.85-.33-1.24-.57-.5-.31-.55-.47-.66-1.08-.36-2.08-.12-4.21-.1-6.3v-.65Z"/>
  <path class="cls-1" d="M181.78,70.91c.02.22.04.43.06.65.73,6.62,4.3,13.32,9.31,17.77,4.42,3.93,10.37,7.08,16.16,8.31,4.08.87,8.56,1.14,12.75,1.05,3.88-.08,7.59-.93,11.17-2.37,6.92-2.78,13.53-7.62,17.06-14.31,1.91-3.62,2.68-7.67,3.09-11.71.36-3.52.12-6.82-.97-10.21-1.97-6.12-6.17-11.31-11.33-15.06-4.64-3.37-10.08-5.66-15.73-6.63-7.84-1.34-16.1-.11-23.36,3.06-2.19.95-4.56,2.05-6.46,3.52-1.82,1.42-3.53,3.21-5,4.99-4.79,5.82-7.4,13.43-6.76,20.95ZM194.07,65.47c1.11-4.55,2.93-8.58,6.46-11.8,2.79-2.54,6.87-3.93,10.5-4.75,3.81-.86,7.78-.94,11.6-.08,4.32.98,8.43,3.14,11.59,6.26,2.21,2.18,3.84,5.47,4.72,8.43.95,3.21.86,6.67.19,9.92-.34,2.9-2.37,5.37-4.3,7.44-2.36,2.54-5.18,4.24-8.29,5.69-4.14,1.55-9.16,2.2-13.57,1.36-3.18-.3-6.26-1.46-9.03-3.03-2.81-1.59-5.12-3.89-7.02-6.51-1.39-1.91-2.07-3.87-2.52-6.15-.43-2.19-.87-4.57-.33-6.78Z"/>
  <path class="cls-1" d="M473.28,78.37c-2.38.07-4.77.13-7.16.14-1.73,0-5.11.81-5.27-1.73-.12-1.92.07-3.84.05-5.77s-.16-3.83-.16-5.75c0-1.41,0-2.91-.58-4.22-.66-1.53-2.15-2.15-3.72-2.36-1.57-.21-3.25-.1-4.79.29-1.13.28-2.49.78-3.12,1.83s-.61,2.45-.67,3.66c.13,9.12.39,18.26.36,27.38-.02,6.12-.13,12.23-.13,18.35,0,1.39-.01,2.81.03,4.2.06,1.88.49,3.64,2.43,4.28,2.35.77,4.94.81,7.32.11.95-.28,1.9-.7,2.51-1.48.82-1.03.83-2.37.81-3.62-.02-1.48.04-2.98.01-4.47-.05-3.17-.17-6.34-.14-9.51.01-1.51.03-3.02.03-4.53,0-1.19-.15-2.7.4-3.8.11-.22.28-.42.46-.59,1.43-1.4,3.36-1.24,5.2-1.29,2.3-.07,4.61-.12,6.91-.16,4.61-.07,9.22-.07,13.83,0,2.74.04,5.47.12,8.2.25.84.04,1.84-.05,2.65.15.31.08.58.2.81.43.6.59.66,1.41.67,2.22,0,4.44.05,8.87.04,13.31,0,2-.08,4.09-.07,6.12.01,1.66-.2,3.42.37,5.01.6,1.69,2.7,2.26,4.34,2.44,2.06.24,5.37.17,6.91-1.42.99-1.01,1.12-2.45,1.29-3.79.39-3.05.21-6.21.19-9.28,0-7.02-.17-14.05-.17-21.07,0-9.12.07-18.25.1-27.38,0-3.83.35-7.85-.45-11.63-.12-.57-.27-1.14-.57-1.64-.71-1.16-2.46-1.48-3.7-1.66-1.54-.22-3.15-.2-4.67.15-1.17.27-2.33.9-2.95,1.97-.88,1.51-.65,3.48-.7,5.16-.05,1.53-.07,3.05-.09,4.58-.02,3.32,0,6.64.04,9.96.02,2.11.06,4.23.02,6.34-.03,1.71.1,3.43-.1,5.14-.1.81-.24,1.7-.63,2.43-.44.82-1.27.92-2.14.93-7.99,0-16.01.07-23.99.3Z"/>
  <path class="cls-1" d="M87.83,149.9c-.02-.43-.05-.86-.08-1.29-.12-1.72-.17-3.85-1.82-4.88-1.4-.87-3.81-.98-5.43-.98s-3.44.28-4.49,1.61c-1.52,1.91-1.31,5.09-1.28,7.37.05,2.83-.04,5.66,0,8.49.03,2.01,0,4.02-.06,6.02-.02.67-.03,1.34-.05,2.01-.01.39.12,1.33-.16,1.62-.07.08-.18.12-.28.16-1.1.41-2.22.19-3.35.28-1.22.09-2.44.12-3.66.13-2.44,0-4.88-.1-7.32-.06-4.6.08-9.21.1-13.81.05-2.08-.02-4.17-.05-6.25-.09-1.04-.02-2.08-.04-3.1-.25-.29-.06-.59-.15-.78-.38-.13-.17-.19-.38-.22-.59-.18-.95-.02-1.91-.06-2.87-.22-5.07.05-10.15-.24-15.21-.12-2.18.31-4.69-1.1-6.59-.98-1.31-2.65-1.66-4.2-1.69-2.64-.06-5.07.08-6.88,2.22-.76.9-.65,2.17-.68,3.31-.06,2.46-.07,4.96-.03,7.42.14,9.02.23,18.05.35,27.07.04,3.3-.03,6.61-.13,9.91-.07,2.49-.02,4.97,0,7.46.02,2.64-.4,5.59.25,8.18.52,2.09,2.23,2.59,4.14,2.93,1.55.28,3.11.29,4.63-.18,1.55-.48,3.5-1.19,4-2.91.22-.76.2-1.57.17-2.37-.11-3.69-.31-7.39-.29-11.09.02-3.6-.08-7.2-.16-10.81,0-.42-.02-.85.15-1.23.26-.58.88-.94,1.51-1.04,1.4-.22,2.93.03,4.35,0,1.56-.02,3.12-.05,4.67-.07,4.64-.07,9.29-.19,13.93-.15,2.55.02,5.1,0,7.64.09,1.3.04,2.59.11,3.88.21,1.07.09,2.32-.03,2.94,1.03.5.87.37,1.89.37,2.84,0,1.25,0,2.49,0,3.74,0,5.19.07,10.37-.06,15.56-.04,1.47-.19,3.35.62,4.66.94,1.52,2.85,1.9,4.51,1.96,1.62.06,3.73.04,5.25-.59,1.97-.81,2.43-3.28,2.6-5.16.2-2.18.09-4.42.09-6.61-.02-9.15,0-18.5.06-27.64.04-5.57-.01-10.93-.01-16.51,0-1.71-.05-3.42-.14-5.13Z"/>
  <path class="cls-1" d="M166.8,148.63c-.07-.92-.2-1.83-.43-2.75-.08-.31-.16-.62-.35-.88-.15-.22-.37-.39-.58-.54-1.64-1.17-3.69-1.58-5.66-1.64-1.67-.05-3.57-.02-4.72,1.43-.46.58-.61,1.34-.67,2.07-.33,4.41-.08,8.81-.05,13.24.03,4.23.04,8.47,0,12.7-.04,4.16-.33,8.32-.33,12.47-.07,2.68,0,5.39-.55,8.02-1.58,7.52-9.41,9.28-16.04,9.45-4.31.11-8.73-.21-12.67-1.96-2.52-1.11-4.85-2.88-6.09-5.33-.64-1.28-.97-2.69-1.21-4.1-.76-4.45-.52-8.98-.46-13.47s.02-9.03-.04-13.54c0-3.45.05-6.89.13-10.33.04-1.75.07-3.49.08-5.24,0-1.28.16-2.98-.42-4.15-1.46-1.32-4.13-1.44-6.04-1.38-.93.03-1.9.06-2.82.22-.74.13-2.4.43-2.84,1.14-.66,1.04-.73,2.29-.73,3.49,0,1.3-.06,2.6-.08,3.9-.04,2.97.04,5.94.08,8.91.06,4.1.21,8.19.23,12.3,0,5.56.03,11.11.2,16.66.12,3.83.96,7.42,2.46,10.93.87,2.03,2.55,3.83,4.14,5.32,5.79,5.4,14.22,7.3,21.91,7.67,4.44.21,8.87-.21,13.2-1.16,3.18-.69,6.45-1.54,9.35-3.11,3.15-1.7,5.27-4.29,7.06-7.33,1.24-2.11,2.21-4.39,2.82-6.77,1.07-4.22.82-8.81.82-13.14,0-9,.39-17.99.39-26.99,0-.09,0-.18,0-.27,0-1.94.06-3.9-.09-5.84Z"/>
  <path class="cls-1" d="M247.62,165.8c-.16-5.81.07-11.63-.1-17.44-.03-.89-.08-1.8-.4-2.63-.88-2.3-3.89-2.89-6.08-2.92-1.69-.02-5.27.06-6.12,1.87-.51,1.1-.2,2.85-.18,4.05.02,1.33.05,2.66.08,3.98.11,4.22.23,8.54.15,12.8-.08,4.31-.37,8.61-.26,12.92.05,2,.22,3.99.15,5.99-.04,1.02.08,4.23-1.19,4.68-1.24.43-2.47-1.21-3.1-2.05-1.15-1.53-2.47-2.94-3.7-4.41-2.75-3.25-5.44-6.55-8.06-9.91-2.52-3.23-5.37-6.12-8.15-9.13-1.7-1.84-3.14-3.84-4.75-5.75-1.91-2.27-4.22-4.97-5.94-7.39-1.01-1.41-2.08-2.82-3.23-4.13-.88-.99-1.9-1.96-3.11-2.53-1.31-.61-2.98-.46-4.4-.49-1.38-.02-2.73-.04-4.07.35-.85.25-1.76.42-2.27,1.22-.36.56-.44,1.24-.45,1.9-.07,2.92-.3,5.81-.21,8.74.08,2.46.23,4.93.29,7.39.1,4.55.02,9.1-.04,13.64-.03,2.3-.05,4.59-.05,6.89.02,5-.03,9.99-.05,14.99,0,2.78-.11,5.58.4,8.32.27,2.59,2.06,4.55,4.69,4.64,1.16.04,2.4,0,3.58-.19,1.05-.16,2.7-.32,3.42-1.18.9-1.01.96-2.38.99-3.67.03-1.59.08-3.18.12-4.76.12-5,.27-9.96.05-14.95-.21-4.6-.4-9.2-.44-13.81-.01-1.18,0-2.36,0-3.54,0-.63.01-1.27.02-1.9,0-.46-.16-1.08.2-1.45.96-.98,2.32.45,2.93,1.08,3.04,3.11,5.52,6.64,8.43,9.86,2.15,2.37,4.31,4.71,6.28,7.23,6.05,6.07,11.1,13,16.47,19.65,1.17,1.45,2.31,2.94,3.51,4.37,1.02,1.23,2.28,2.48,3.87,2.9,1.52.4,2.75.35,4.3.39,1.84.05,4.41.45,5.75-1.2.85-1.06.66-2.49.66-3.76,0-1.96.02-3.93.02-5.89,0-4.43.03-8.87-.03-13.3-.1-7.16.02-14.34.03-21.5Z"/>
  <path class="cls-1" d="M321.75,147.8c.01-.89-.07-1.77-.51-2.4-.65-.93-2.02-1.51-3.12-1.66-5.18-.71-10.4-.49-15.61-.55-9.04-.11-18.08.06-27.12-.17-2.54-.06-5.05-.08-7.59.02-1.78.07-3.82-.05-5.46.75-1.34.66-2.13,1.74-2.31,3.2-.26,2.12-.37,4.9,1.57,6.3,1.06.77,2.21.84,3.47.88,1.52.04,3.04.07,4.55.09,3.98.06,7.96.05,11.95-.04.43,0,.88-.02,1.28.16.99.45,1.08,2.53,1.15,3.46.17,2.37.01,4.81.02,7.19,0,9.1.17,18.2.24,27.3.05,5.25-.23,10.5-.23,15.75,0,1.6.85,2.78,2.41,3.14,2.68.63,7.44,1.19,9.77-.64,1.47-1.16,1.18-3.33,1.24-5,.15-4.65.04-8.91.09-13.36.05-4.34.02-8.64.02-12.98.03-7.03.3-14.06.3-21.09,0-2.08.01-3.74,2.55-3.74,3.41,0,6.81.13,10.21.12,1.72,0,3.44-.04,5.16-.16,1.69-.11,4.05-.11,5.16-1.63.6-.82.73-1.89.73-2.91,0-.59.07-1.31.08-2.03Z"/>
  <path class="cls-1" d="M349.32,192.94c-.08-3.61-.16-7.23-.16-10.84.05-5.39-.03-10.78-.03-16.17-.02-3.48.02-6.96,0-10.43,0-1.74-.03-3.48-.08-5.22-.07-2.38.44-5.21-1.95-6.62-1.8-1.06-4.09-.73-6.08-.76-2.76-.04-5.11,1.71-5.17,4.61-.11,5.09,0,10.23.1,15.31.07,4.09-.05,8.16.1,12.25.17,4.51.11,9.03.23,13.54.15,5.75.05,11.58.06,17.36,0,1.55-.16,3.15,1.21,4.23.76.6,1.75.82,2.71.96,1.72.25,3.49.26,5.2-.09.95-.2,1.92-.53,2.59-1.23,1.66-1.73,1.47-4.81,1.45-7.01-.03-3.3-.11-6.59-.19-9.89Z"/>
  <path class="cls-1" d="M429.52,211.34c.73-.05,1.47-.19,2.1-.55.81-.47,1.04-1.61,1.11-2.52.13-1.64.08-3.04.03-4.69-.06-1.87-.1-3.73-.12-5.6-.01-.96-.03-1.94.04-2.9-.13-4.49.03-8.97.15-13.46.11-4.42,0-8.8-.13-13.22-.1-3.09-.12-6.19-.12-9.28,0-2.96-.17-5.91-.06-8.87.06-1.6.21-3.33-.44-4.84-.68-1.57-2.3-2.36-3.96-2.39-1.43-.03-2.87.05-4.28.35-1.14.24-2.6.54-3.33,1.55-.92,1.27-.65,2.92-.64,4.39.02,1.79.04,3.59.06,5.38,0,4.88.07,9.74-.04,14.61-.07,3.17-.07,6.43-.04,9.63.01,1.74.07,3.48.01,5.22-.03.89-.09,1.78-.19,2.66-.07.56-.04,1.76-.54,2.13-.79.59-2.11-.58-2.64-1.1-.74-.72-1.3-1.6-1.95-2.4-2.75-3.38-5.67-6.62-8.37-10.03-5.26-6.67-11.22-12.88-16.68-19.43-1.53-1.84-3.07-3.68-4.48-5.62-1.79-2.01-3.26-5.16-5.79-6.36-2.05-.98-4.99-1-7.22-.78-1.23.12-3.24.42-4.02,1.53-.6.85-.46,2.27-.52,3.26-.2,2.92-.16,5.8-.16,8.72.36,9.03.16,18.08.11,27.11-.02,3.69.04,7.41.21,11.1.17,3.78.08,7.52.09,11.29,0,1.2.21,2.45.94,3.41,1.2,1.59,3.31,1.91,5.17,1.85,1.61-.05,4.55-.16,5.69-1.48.91-1.04,1.05-2.53,1.04-3.85,0-1.61.04-3.22.08-4.83.08-3.6.26-7.21.21-10.81-.05-4.58-.32-9.16-.48-13.73-.12-3.16-.17-6.32-.12-9.48.01-.61.05-1.47.74-1.71.97-.33,1.88.75,2.45,1.36,1.35,1.43,2.77,2.82,4.01,4.35s2.46,3.14,3.74,4.66c1.66,1.97,3.35,3.92,5.05,5.86.87.98,1.75,1.96,2.62,2.94,5.84,6.57,11.16,13.56,16.8,20.3.96,1.15,1.96,2.28,2.91,3.45.78.95,1.41,1.84,2.6,2.33,2.54,1.05,5.53.65,8.2.49.05,0,.11,0,.16-.01Z"/>
  <g>
    <path class="cls-1" d="M434.47,251.05c-1-.74-1.87-1.66-2.52-2.73-.3-.49-.54-1-.74-1.54-.93-2.56-.78-5.53.47-7.95.5-.96,1.17-1.83,2-2.54.97-.83,1.93-1.53,3.14-1.97,1.15-.42,2.38-.6,3.6-.55,2.44.09,4.85,1.05,6.61,2.75.74.71,1.35,1.55,1.8,2.47.59,1.22,1.1,2.75.99,4.11-.02.2-.05.4-.15.57-.6,1.02-2.58.88-2.86-.32-.15-.65-.15-1.33-.3-1.98-.14-.61-.46-1.18-.83-1.69-.67-.93-1.6-1.65-2.63-2.13-2.08-.96-4.65-.92-6.54.46-.43.32-.82.7-1.15,1.12-1.69,2.16-2.22,4.97-.93,7.48.57,1.12,1.51,2.06,2.62,2.66.97.53,2.2.79,3.29.9.82.09,1.87-.08,2.6.36.79.47.51,1.57-.09,2.08-.61.51-1.53.56-2.28.54-2.18-.06-4.35-.81-6.11-2.1Z"/>
    <path class="cls-1" d="M455.55,262.35c-.33-.12-.66-.27-.97-.42-1.49-.74-2.84-1.82-3.79-3.2-1.12-1.62-1.63-3.58-1.52-5.54s.79-3.81,1.89-5.39c1.12-1.58,2.68-2.85,4.51-3.51,2.06-.74,4.29-.63,6.34.1.52.19,1.03.41,1.52.66,2.06,1.05,3.71,3.12,4.4,5.31.64,2.05.54,4.28-.18,6.29s-2.01,3.77-3.76,4.96c-2.46,1.67-5.7,1.76-8.44.73ZM457.47,259.85c8.35,1.81,11.14-11.01,2.81-12.86-8.36-1.85-11.16,10.92-2.81,12.86Z"/>
    <path class="cls-1" d="M473.23,267.22c-.62-.24-.77-.94-.73-1.53.2-2.83.25-5.68.52-8.5.23-2.35.36-4.73.46-7.09.03-.62.24-1.08.9-1.15.56-.06,1.14-.1,1.62.25.82.58,1.17,1.82,1.54,2.71.69,1.65,1.39,3.3,2.1,4.95.4.94.84,1.86,1.24,2.81.2.48.4.96.57,1.45.14.4.25.83.58,1.13.33.3.64-.1.81-.38.23-.37.41-.77.65-1.15.55-.86,1.08-1.72,1.61-2.59,1.06-1.74,2.08-3.5,3.08-5.27.16-.28.32-.57.48-.85.12-.2.51-.67.51-.9.23-.41.43-.78.87-.97.39-.16.85-.22,1.27-.18.36.03.67.19.88.49.5.71.38,1.62.29,2.43-.11,1.04-.18,2.08-.25,3.12-.14,1.9-.22,3.84-.33,5.75-.07,1.17-.19,2.35-.3,3.52-.06.6-.11,1.19-.15,1.79-.03.42-.04.96-.45,1.21-.4.25-.99.2-1.43.09-.55-.14-1.04-.52-1.11-1.11-.12-.99.05-2.06.09-3.05.06-1.35.17-2.69.34-4.03.03-.2.31-2.18-.11-2.11-.1,0-.18.08-.25.16-.23.31-.37.7-.58,1.03-.28.45-.56.91-.84,1.37-.55.91-1.1,1.83-1.64,2.75-.46.78-.92,1.56-1.38,2.34-.46.78-.74,1.74-1.72,2-1.37.36-1.86-.91-2.29-1.91-.6-1.39-1.14-2.81-1.75-4.2-.52-1.18-1-2.38-1.47-3.57-.09-.22-.28-1.1-.67-.82-.19.13-.18.57-.2.77-.06.54-.08,1.16-.1,1.7-.05,1.03-.1,1.89-.15,2.92-.05.92-.05,1.94-.12,2.86-.08,1.11-.47,2.25-1.81,1.97-.2-.04-.4-.11-.6-.18Z"/>
    <path class="cls-1" d="M501.61,267.21c-.44.01-.82-.26-1.03-.64-.16-.29-.22-.62-.29-.95-.71-3.66-1.4-7.34-2.3-10.96-.36-1.45-.84-2.85-1.05-4.33-.11-.76.9-1.07,1.47-1.2,2.19-.53,4.4-1.05,6.61-1.52,1.71-.37,3.66-.59,5.24.32.9.52,1.59,1.36,2.02,2.3.55,1.19.73,2.5.56,3.79-.52,4-4.37,4.17-7.51,5.07-3.07.55-3.43.72-2.5,3.84.29,1.73,1.53,4.2-1.23,4.28ZM505.12,256.07c.76-.19,1.52-.4,2.27-.62.6-.18,1.61-.3,2.02-.84,1.38-1.8-.06-5.04-2.51-4.32-1.22.36-2.5.57-3.74.84-.64.14-1.27.28-1.91.43-.61.14-.71.7-.63,1.24.11.77.28,1.53.46,2.29.1.42.11,1.01.44,1.35.4.41.99.24,1.47.14.66-.14,1.32-.3,1.98-.46.05-.01.11-.03.16-.04Z"/>
    <path class="cls-1" d="M520.83,262.37c-1.14.32-2.02-.11-2.16-1.3-.22-1.8-.17-3.61-.14-5.42s-.04-3.6-.12-5.4c-.06-1.28-.1-2.56-.2-3.83-.08-1.05-.35-2.21.17-3.19.42-.8,1.37-1.14,2.13-.59,1.11.81,2.17,1.69,3.22,2.57,2.97,2.48,5.95,4.94,8.94,7.39.7.57,1.6.99,1.8,1.97.18.88-.68,1.63-1.49,1.77-.38.06-.95-.5-1.26-.71-.35-.24-.69-.49-1.03-.74-.47-.34-.92-.71-1.39-1.04-.57-.4-1.05-.61-1.73-.36s-1.24.63-1.83.97c-.75.42-1.51.83-2.28,1.22-.41.21-.86.37-1.22.66-.45.37-.48.69-.47,1.26.02,1.05.3,2.08.27,3.13-.01.48-.16,1-.53,1.3-.17.14-.41.25-.67.32ZM525.63,251.19c.03-.06.05-.12.05-.19.07-.67-1.19-1.31-1.64-1.67-.68-.54-1.34-1.17-2.05-1.65s-.58.29-.56.8c.03.81.03,1.62.06,2.43.01.44-.07,1.43.11,1.85.33.75,1.48.11,1.94-.14.59-.32,1.8-.8,2.1-1.43Z"/>
    <path class="cls-1" d="M541.75,250.3c-.67.42-1.53-.47-1.89-.9-1.54-1.81-3.11-3.6-4.69-5.37-1.52-1.71-3-3.47-4.62-5.08-.57-.56-1.25-1.37-.91-2.23.15-.38.88-.85,1.23-1.04.56-.3,1.01-.24,1.6-.08,2.23.6,4.5,1.07,6.76,1.55,1.16.25,2.33.48,3.5.71.57.11,1.14.22,1.71.33.32.06,1.69.58,1.87.16.16-.38-.51-.78-.65-1.07-1.6-1.78-3.32-3.97-4.93-5.72-.61-.88-2.52-1.92-1.6-3.09.49-.62,1.22-1.5,1.98-.76,3.43,3.33,6.21,7.22,9.53,10.65.51.53,1.12.98,1.51,1.62.13.2.23.43.24.67.04.65-.78,1.22-1.31,1.45-.62.27-1.31.28-1.97.19-1.67-.23-3.24-.84-4.88-1.22s-3.38-.69-5.08-.99c-1.43-.25-5.45-1.72-2.7.87.96.91,1.85,2.04,2.76,3.03,1.07,1.15,2.03,2.4,3.11,3.54.97,1.03.55,2.06-.57,2.76Z"/>
    <path class="cls-1" d="M562.54,227.9c-.95.54-2.09-.21-2.86-.75-1.07-.75-2.15-1.48-3.23-2.22-.26-.17-.52-.35-.81-.46-.81-.3-1.93-.16-2.77-.12-.99.05-1.98.33-2.96.46-.87.12-1.75.23-2.63.31-.82.07-1.82.25-2.63.09-1.06-.2-.89-1.58-.73-2.36.29-.58,1.19-.61,1.75-.69,9.57-1.3,8.6,1.43,5.58-8.31-.23-.75-.61-1.45.04-2.13.57-.6,1.93-1.01,2.32-.07,1.26,3.05,2.07,6.27,3.23,9.36.07.17.13.35.25.5.09.11.2.19.31.28.88.66,1.77,1.3,2.69,1.89.87.57,1.87,1.01,2.68,1.66,1,.79.46,1.78-.23,2.57Z"/>
  </g>
  <g>
    <path class="cls-1" d="M16.86,31.74c-.84.4-1.41.1-1.88-.63-.66-1.03-1.07-2.22-1.65-3.31-.78-1.45-1.54-2.91-2.31-4.36-.43-.81-.83-1.63-1.25-2.45-.36-.7-.71-1.39-1.18-2.02-.05-.07-.11-.15-.19-.19-.45-.25-.99.28-1.38.48-.68.35-1.35.79-2.09,1.15-.46.23-.96.51-1.47.22-.51-.29-.84-.88-.96-1.44-.24-1.1,1.73-1.9,2.45-2.25,1.46-.71,2.95-1.33,4.37-2.13s2.8-1.38,4.19-2.08c1.02-.59,2.05-.49,2.52.7.75,1.8-2.95,2.63-4.08,3.4-.72.37-.07,1.1.14,1.59.34.53.6,1.24.87,1.81.79,1.49,1.52,3.01,2.25,4.52.5,1.04,1.02,2.06,1.55,3.09.26.51.53,1.02.8,1.53.22.43.44.9.27,1.39-.14.39-.52.76-.97.97Z"/>
    <path class="cls-1" d="M27.62,26.62c-.87.04-1.15-.86-1.22-1.58-.16-.62-.39-1.37-.49-2-.51-2.25-1.01-4.58-1.59-6.82-.34-1.35-.79-3.07-1.06-4.43-.18-.91-.88-2.21.07-2.9,1.08-.5,2.3-.58,2.55.85.39,1.68.84,3.46,1.22,5.14.2.95,1.46.18,2.09.15,8.09-2.35,7.54.52,5.73-7.53-.38-1.36,1.12-1.82,2.19-1.71.48.05.77.83.87,1.2.72,2.6,1.19,5.28,1.82,7.91.48,2.03.97,4.05,1.44,6.08.05.22.1.44.15.67.15.66.2,1.33-.39,1.79-.25.19-.56.3-.87.35-.26.05-.7.17-.96.06-.4-.18-.51-.69-.6-1.07-.13-.54-.24-1.07-.36-1.61-.33-1.47-.49-3.12-1.15-4.48-.24-.5-1.05-.19-1.43-.1-.73.16-1.45.32-2.18.49-.82.19-1.65.39-2.47.59-.42.1-.84.21-1.26.31-.32.08-.78.11-1.06.29-.69.43-.41,1.4-.28,2.03.2.94.45,1.87.69,2.8.15.55.34,1.09.41,1.66.15,1.27-.69,1.8-1.88,1.85Z"/>
    <path class="cls-1" d="M57.05,23.26c-1.28-.05-2.57-.09-3.85-.13-.92-.03-1.84-.04-2.76-.06-.46,0-.92-.01-1.38,0-.39,0-.79.06-1.16-.04-1.16-.32-.97-1.77-.95-2.68.09-4.13.07-8.25.21-12.38.02-.56.04-1.12.06-1.68.03-.66.1-1.27.8-1.55.33-.13.69-.07,1.04-.06.44.01.88.02,1.32.03.9.02,1.8.04,2.7.06,2.26.04,4.52.04,6.78.16.27.01.55.03.8.13.63.26.75,1.23.6,1.81-.33,1.28-2.09.97-3.07.93-2.41.04-4.93-.1-7.34-.05-.57-.01-.64.78-.67,1.19-.05.72-.01,1.47-.02,2.2,0,.17,0,.33.05.49.21.59,1.03.5,1.51.52,1.61.07,3.21.09,4.82.12.65.01,1.73.11,1.73.98.1.72.15,1.72-.74,1.91-1.26.06-2.51-.03-3.77-.07-.63-.02-1.26-.03-1.89,0-.36.01-.72-.03-1.08.03-.54.08-.63.33-.66.84-.05.83-.16,1.66-.12,2.49.03.65.1,1.45.83,1.67.25.08.52.08.78.08.97,0,1.93,0,2.9,0,1.1,0,2.19,0,3.29.04.58.02,1.16.03,1.74.1.46.05,1.19,0,1.42.5.45.95.14,2.07-.89,2.39-.47.15-.98.13-1.48.11-.52-.02-1.03-.04-1.55-.06Z"/>
  </g>
  <path class="cls-1" d="M522.36,193.33c.8-1.28,1.26-3.15,1.74-4.61.55-1.67,1.02-3.38,1.3-5.13.49-3.04.67-7.28-1.44-9.8-1.83-2.18-4.75-2.03-7.33-2.23-9.03-.71-18.11-.21-27.14.01-1.25.03-2.58-.06-3.79.3-3.67,1.06-2.91,6-2.02,8.72.73,2.24,3.62,2.17,5.62,2.3,2.72.18,5.45,0,8.18-.07,4.11-.11,8.23-.27,12.33,0,.89.06,1.82.2,2.03,1.2.2.94-.22,1.9-.57,2.75-.5,1.22-1.1,2.39-1.79,3.5-3.94,6.34-10.54,10.07-17.82,11.2-6.13.95-12.48.17-18.08-2.56-5.63-2.74-10.68-7.41-13.04-13.28-3-7.47-1.51-16.05,3.24-22.44.32-.43.66-.86,1.01-1.27,1.9-2.25,4.19-4.18,6.74-5.65,3.37-1.95,7.17-3.12,11.04-3.53,3.98-.42,7.68.16,11.56.95,3.1.63,6.08,1.9,8.77,3.55,1.27.78,2.57,1.65,3.67,2.66,1.16,1.06,2.14,2.24,3.67,2.79,2.59.94,5.49-.33,7.31-2.22,1.13-1.17,1.95-2.72,1.32-4.33-1.39-3.55-5.04-5.93-8.14-7.88-3.28-2.07-6.83-3.72-10.52-4.9-8.04-2.57-16.86-2.86-25.04-.74-1.48.38-2.94.84-4.37,1.38-7.31,2.75-14,7.21-18.54,13.65-3.95,5.61-6.45,12.08-6.38,18.99.04,3.66.65,7.37,1.77,10.88,1.1,3.41,2.66,7.21,5.02,9.96,2.63,3.07,5.41,5.9,8.75,8.21,3.24,2.25,6.85,3.96,10.6,5.17.9.29,1.81.56,2.73.79,7.94,2.04,16.39,2,24.32-.05,2.07-.54,4.11-1.21,6.09-2.02,2-.81,3.9-2.05,5.74-3.17,2.7-1.86,5.36-4.61,7.59-6.99,1.42-1.84,2.63-4.17,3.86-6.13Z"/>
  <path class="cls-1" d="M397.9,54.18c.33.14.6.42.79.94.22.61.11,1.27.11,1.92-.01,8.66-.06,17.97-.34,26.93-.15,4.96-.23,9.89-.23,14.85-.03,5.13-.46,10.37-.27,15.49.07,1.88.08,3.79,1.66,4.99,1.84,1.4,4.37,1.57,6.59,1.33,1.73-.19,3.5-.27,4.46-1.96.51-.9.67-1.96.68-3,.04-2.61-.04-5.25-.07-7.86-.02-2.19.05-4.38.05-6.58,0-4.59-.04-9.19,0-13.78.09-9.05.07-17.35-.08-26.41-.05-3.12.21-6.98.21-10.09-.24-2.79,3.38-2.88,5.58-3.48,6.48-1.76,13.16-3.34,19.9-3.9,11.05-.92,23.4,1.05,32.11,8.42,2.93,2.48,7.51,8.02,11.89,5.97,3.9-1.83,1.39-6.12-.43-8.47-1.15-1.49-2.49-2.82-3.92-4.03-1.76-1.49-3.66-2.81-5.65-3.98-2.34-1.37-4.79-2.54-7.32-3.51-2.9-1.12-5.89-2-8.93-2.65-3.45-.74-6.96-1.19-10.48-1.38-8.79-.48-17.71.61-26.2,2.89-3.85,1.03-7.55,2.32-11.31,3.61-22.81,9.12-58.1,19.44-68.93-9.76-.4-1.09.43-2.25,1.59-2.21,11.77.4,21.93,1.85,28.86,11.75,3.57,5.11,12.03.24,8.42-4.92-10.99-15.71-28.36-17.03-46.15-16.6-3.26.08-5.43,3.05-4.7,6.17,3.43,14.75,10.96,27.22,25.92,32.34,13.91,4.76,29.56,2.48,43.11-2.37.91-.32,2.15-1.03,3.02-.67Z"/>
  <path class="cls-1" d="M86.99,101.16c.8-1.28,1.26-3.15,1.74-4.61.55-1.67,1.02-3.38,1.3-5.13.49-3.04.67-7.28-1.44-9.8-1.83-2.18-4.75-2.03-7.33-2.23-9.03-.71-18.11-.21-27.14.01-1.25.03-2.58-.06-3.79.3-3.67,1.06-2.91,6-2.02,8.72.73,2.24,3.62,2.17,5.62,2.3,2.72.18,5.45,0,8.18-.07,4.11-.11,8.23-.27,12.33,0,.89.06,1.82.2,2.03,1.2.2.94-.22,1.9-.57,2.75-.5,1.22-1.1,2.39-1.79,3.5-3.94,6.34-10.54,10.07-17.82,11.2-6.13.95-12.48.17-18.08-2.56-5.63-2.74-10.68-7.41-13.04-13.28-3-7.47-1.51-16.05,3.24-22.44.32-.43.66-.86,1.01-1.27,1.9-2.25,4.19-4.18,6.74-5.65,3.37-1.95,7.17-3.12,11.04-3.53s7.68.16,11.56.95c3.1.63,6.08,1.9,8.77,3.55,1.27.78,2.57,1.65,3.67,2.66,1.16,1.06,2.14,2.24,3.67,2.79,2.59.94,5.49-.33,7.31-2.22,1.13-1.17,1.95-2.72,1.32-4.33-1.39-3.55-5.04-5.93-8.14-7.88-3.28-2.07-6.83-3.72-10.52-4.9-8.04-2.57-16.86-2.86-25.04-.74-1.48.38-2.94.84-4.37,1.38-7.31,2.75-14,7.21-18.54,13.65-3.95,5.61-6.45,12.08-6.38,18.99.04,3.66.65,7.37,1.77,10.88,1.1,3.41,2.66,7.21,5.02,9.96,2.63,3.07,5.41,5.9,8.75,8.21,3.24,2.25,6.85,3.96,10.6,5.17.9.29,1.81.56,2.73.79,7.94,2.04,16.39,2,24.32-.05,2.07-.54,4.11-1.21,6.09-2.02,2-.81,3.9-2.05,5.74-3.17,2.7-1.86,5.36-4.61,7.59-6.99,1.42-1.84,2.63-4.17,3.86-6.13Z"/>
</svg>